<mxfile host="app.diagrams.net" modified="2024-05-21T04:16:36.023Z" agent="Mozilla/5.0 (X11; Linux x86_64) AppleWebKit/537.36 (KHTML, like Gecko) Chrome/122.0.0.0 Safari/537.36" etag="Y6CcPLmAYIK2_cKwLtVG" version="24.4.4" type="github">
  <diagram name="Page-1" id="QPxEbkuIlOFX7lfpo90y">
    <mxGraphModel dx="1999" dy="812" grid="1" gridSize="10" guides="1" tooltips="1" connect="1" arrows="1" fold="1" page="1" pageScale="1" pageWidth="850" pageHeight="1100" math="0" shadow="0">
      <root>
        <mxCell id="0" />
        <mxCell id="1" parent="0" />
        <mxCell id="ZeraCoXUNdHbXlrZxC8q-15" style="edgeStyle=orthogonalEdgeStyle;rounded=0;orthogonalLoop=1;jettySize=auto;html=1;exitX=1;exitY=0.5;exitDx=0;exitDy=0;entryX=0;entryY=0.5;entryDx=0;entryDy=0;" edge="1" parent="1" source="ZeraCoXUNdHbXlrZxC8q-4" target="ZeraCoXUNdHbXlrZxC8q-6">
          <mxGeometry relative="1" as="geometry" />
        </mxCell>
        <mxCell id="ZeraCoXUNdHbXlrZxC8q-4" value="Front LiDAR" style="rounded=1;whiteSpace=wrap;html=1;fontSize=18;" vertex="1" parent="1">
          <mxGeometry x="-800" y="270" width="120" height="60" as="geometry" />
        </mxCell>
        <mxCell id="ZeraCoXUNdHbXlrZxC8q-16" style="edgeStyle=orthogonalEdgeStyle;rounded=0;orthogonalLoop=1;jettySize=auto;html=1;exitX=1;exitY=0.5;exitDx=0;exitDy=0;entryX=0;entryY=0.5;entryDx=0;entryDy=0;" edge="1" parent="1" source="ZeraCoXUNdHbXlrZxC8q-5" target="ZeraCoXUNdHbXlrZxC8q-7">
          <mxGeometry relative="1" as="geometry" />
        </mxCell>
        <mxCell id="ZeraCoXUNdHbXlrZxC8q-5" value="Rear LiDAR" style="rounded=1;whiteSpace=wrap;html=1;fontSize=18;" vertex="1" parent="1">
          <mxGeometry x="-800" y="380" width="120" height="60" as="geometry" />
        </mxCell>
        <mxCell id="ZeraCoXUNdHbXlrZxC8q-21" style="edgeStyle=orthogonalEdgeStyle;rounded=0;orthogonalLoop=1;jettySize=auto;html=1;exitX=1;exitY=0.5;exitDx=0;exitDy=0;entryX=0.5;entryY=0;entryDx=0;entryDy=0;" edge="1" parent="1" source="ZeraCoXUNdHbXlrZxC8q-6" target="ZeraCoXUNdHbXlrZxC8q-8">
          <mxGeometry relative="1" as="geometry" />
        </mxCell>
        <mxCell id="ZeraCoXUNdHbXlrZxC8q-6" value="urg_node" style="rounded=1;whiteSpace=wrap;html=1;fontSize=18;" vertex="1" parent="1">
          <mxGeometry x="-640" y="270" width="120" height="60" as="geometry" />
        </mxCell>
        <mxCell id="ZeraCoXUNdHbXlrZxC8q-22" style="edgeStyle=orthogonalEdgeStyle;rounded=0;orthogonalLoop=1;jettySize=auto;html=1;exitX=1;exitY=0.5;exitDx=0;exitDy=0;entryX=0.5;entryY=1;entryDx=0;entryDy=0;" edge="1" parent="1" source="ZeraCoXUNdHbXlrZxC8q-7" target="ZeraCoXUNdHbXlrZxC8q-8">
          <mxGeometry relative="1" as="geometry" />
        </mxCell>
        <mxCell id="ZeraCoXUNdHbXlrZxC8q-7" value="urg_node" style="rounded=1;whiteSpace=wrap;html=1;fontSize=18;" vertex="1" parent="1">
          <mxGeometry x="-640" y="380" width="120" height="60" as="geometry" />
        </mxCell>
        <mxCell id="ZeraCoXUNdHbXlrZxC8q-23" style="edgeStyle=orthogonalEdgeStyle;rounded=0;orthogonalLoop=1;jettySize=auto;html=1;exitX=1;exitY=0.5;exitDx=0;exitDy=0;entryX=0;entryY=0.5;entryDx=0;entryDy=0;" edge="1" parent="1" source="ZeraCoXUNdHbXlrZxC8q-8" target="ZeraCoXUNdHbXlrZxC8q-9">
          <mxGeometry relative="1" as="geometry" />
        </mxCell>
        <mxCell id="ZeraCoXUNdHbXlrZxC8q-8" value="laserscan_&lt;div&gt;multi_merger&lt;/div&gt;" style="rounded=1;whiteSpace=wrap;html=1;fontSize=18;" vertex="1" parent="1">
          <mxGeometry x="-485" y="320" width="120" height="60" as="geometry" />
        </mxCell>
        <mxCell id="ZeraCoXUNdHbXlrZxC8q-25" style="edgeStyle=orthogonalEdgeStyle;rounded=0;orthogonalLoop=1;jettySize=auto;html=1;exitX=1;exitY=0.5;exitDx=0;exitDy=0;entryX=0;entryY=0.5;entryDx=0;entryDy=0;" edge="1" parent="1" source="ZeraCoXUNdHbXlrZxC8q-9" target="ZeraCoXUNdHbXlrZxC8q-11">
          <mxGeometry relative="1" as="geometry" />
        </mxCell>
        <mxCell id="ZeraCoXUNdHbXlrZxC8q-26" style="edgeStyle=orthogonalEdgeStyle;rounded=0;orthogonalLoop=1;jettySize=auto;html=1;exitX=0.5;exitY=1;exitDx=0;exitDy=0;entryX=0;entryY=0.5;entryDx=0;entryDy=0;" edge="1" parent="1" source="ZeraCoXUNdHbXlrZxC8q-9" target="ZeraCoXUNdHbXlrZxC8q-12">
          <mxGeometry relative="1" as="geometry" />
        </mxCell>
        <mxCell id="ZeraCoXUNdHbXlrZxC8q-42" style="edgeStyle=orthogonalEdgeStyle;rounded=0;orthogonalLoop=1;jettySize=auto;html=1;exitX=0.5;exitY=0;exitDx=0;exitDy=0;entryX=0;entryY=0.5;entryDx=0;entryDy=0;" edge="1" parent="1" source="ZeraCoXUNdHbXlrZxC8q-9" target="ZeraCoXUNdHbXlrZxC8q-39">
          <mxGeometry relative="1" as="geometry" />
        </mxCell>
        <mxCell id="ZeraCoXUNdHbXlrZxC8q-9" value="scan_post_&lt;div&gt;filter&lt;/div&gt;" style="rounded=1;whiteSpace=wrap;html=1;fontSize=18;" vertex="1" parent="1">
          <mxGeometry x="-330" y="320" width="120" height="60" as="geometry" />
        </mxCell>
        <mxCell id="ZeraCoXUNdHbXlrZxC8q-10" value="amcl" style="rounded=1;whiteSpace=wrap;html=1;fontSize=18;" vertex="1" parent="1">
          <mxGeometry x="-180" y="240" width="150" height="60" as="geometry" />
        </mxCell>
        <mxCell id="ZeraCoXUNdHbXlrZxC8q-11" value="object_classifier" style="rounded=1;whiteSpace=wrap;html=1;fontSize=18;" vertex="1" parent="1">
          <mxGeometry x="-180" y="320" width="150" height="60" as="geometry" />
        </mxCell>
        <mxCell id="ZeraCoXUNdHbXlrZxC8q-12" value="safety_manager" style="rounded=1;whiteSpace=wrap;html=1;fontSize=18;" vertex="1" parent="1">
          <mxGeometry x="-180" y="400" width="150" height="60" as="geometry" />
        </mxCell>
        <mxCell id="ZeraCoXUNdHbXlrZxC8q-27" value="/scan_front" style="text;html=1;align=center;verticalAlign=middle;resizable=0;points=[];autosize=1;strokeColor=none;fillColor=none;fontSize=18;" vertex="1" parent="1">
          <mxGeometry x="-490" y="240" width="110" height="40" as="geometry" />
        </mxCell>
        <mxCell id="ZeraCoXUNdHbXlrZxC8q-28" value="/scan_rear" style="text;html=1;align=center;verticalAlign=middle;resizable=0;points=[];autosize=1;strokeColor=none;fillColor=none;fontSize=18;" vertex="1" parent="1">
          <mxGeometry x="-490" y="430" width="110" height="40" as="geometry" />
        </mxCell>
        <mxCell id="ZeraCoXUNdHbXlrZxC8q-29" value="/unmasked_scan" style="text;html=1;align=center;verticalAlign=middle;resizable=0;points=[];autosize=1;strokeColor=none;fillColor=none;fontSize=18;" vertex="1" parent="1">
          <mxGeometry x="-460" y="190" width="160" height="40" as="geometry" />
        </mxCell>
        <mxCell id="ZeraCoXUNdHbXlrZxC8q-30" value="/scan_amcl" style="text;html=1;align=center;verticalAlign=middle;resizable=0;points=[];autosize=1;strokeColor=none;fillColor=none;fontSize=18;" vertex="1" parent="1">
          <mxGeometry x="-60" y="180" width="110" height="40" as="geometry" />
        </mxCell>
        <mxCell id="ZeraCoXUNdHbXlrZxC8q-31" value="/scan_dynamic" style="text;html=1;align=center;verticalAlign=middle;resizable=0;points=[];autosize=1;strokeColor=none;fillColor=none;fontSize=18;" vertex="1" parent="1">
          <mxGeometry x="-175" y="470" width="140" height="40" as="geometry" />
        </mxCell>
        <mxCell id="ZeraCoXUNdHbXlrZxC8q-32" value="/scan" style="text;html=1;align=center;verticalAlign=middle;resizable=0;points=[];autosize=1;strokeColor=none;fillColor=none;fontSize=18;" vertex="1" parent="1">
          <mxGeometry x="-225" y="290" width="70" height="40" as="geometry" />
        </mxCell>
        <mxCell id="ZeraCoXUNdHbXlrZxC8q-33" value="" style="curved=1;endArrow=oval;html=1;rounded=0;endFill=1;entryX=0.492;entryY=0.014;entryDx=0;entryDy=0;entryPerimeter=0;startArrow=oval;startFill=1;" edge="1" parent="1" target="ZeraCoXUNdHbXlrZxC8q-28">
          <mxGeometry width="50" height="50" relative="1" as="geometry">
            <mxPoint x="-460" y="410" as="sourcePoint" />
            <mxPoint x="-340" y="510" as="targetPoint" />
            <Array as="points">
              <mxPoint x="-460" y="410" />
            </Array>
          </mxGeometry>
        </mxCell>
        <mxCell id="ZeraCoXUNdHbXlrZxC8q-34" value="" style="curved=1;endArrow=oval;html=1;rounded=0;endFill=1;startArrow=oval;startFill=1;" edge="1" parent="1">
          <mxGeometry width="50" height="50" relative="1" as="geometry">
            <mxPoint x="-437" y="279" as="sourcePoint" />
            <mxPoint x="-460" y="300" as="targetPoint" />
            <Array as="points" />
          </mxGeometry>
        </mxCell>
        <mxCell id="ZeraCoXUNdHbXlrZxC8q-35" value="" style="curved=1;endArrow=oval;html=1;rounded=0;endFill=1;startArrow=oval;startFill=1;exitX=0.631;exitY=1.094;exitDx=0;exitDy=0;exitPerimeter=0;" edge="1" parent="1" source="ZeraCoXUNdHbXlrZxC8q-29">
          <mxGeometry width="50" height="50" relative="1" as="geometry">
            <mxPoint x="-307" y="280" as="sourcePoint" />
            <mxPoint x="-350" y="350" as="targetPoint" />
            <Array as="points">
              <mxPoint x="-340" y="290" />
            </Array>
          </mxGeometry>
        </mxCell>
        <mxCell id="ZeraCoXUNdHbXlrZxC8q-37" value="" style="curved=1;endArrow=oval;html=1;rounded=0;endFill=1;startArrow=oval;startFill=1;entryX=0.352;entryY=1.014;entryDx=0;entryDy=0;entryPerimeter=0;" edge="1" parent="1" target="ZeraCoXUNdHbXlrZxC8q-32">
          <mxGeometry width="50" height="50" relative="1" as="geometry">
            <mxPoint x="-200" y="350" as="sourcePoint" />
            <mxPoint x="-200" y="280" as="targetPoint" />
            <Array as="points" />
          </mxGeometry>
        </mxCell>
        <mxCell id="ZeraCoXUNdHbXlrZxC8q-38" value="" style="curved=1;endArrow=oval;html=1;rounded=0;endFill=1;startArrow=oval;startFill=1;" edge="1" parent="1">
          <mxGeometry width="50" height="50" relative="1" as="geometry">
            <mxPoint x="-220" y="430" as="sourcePoint" />
            <mxPoint x="-180" y="490" as="targetPoint" />
            <Array as="points">
              <mxPoint x="-210" y="470" />
            </Array>
          </mxGeometry>
        </mxCell>
        <mxCell id="ZeraCoXUNdHbXlrZxC8q-40" style="edgeStyle=orthogonalEdgeStyle;rounded=0;orthogonalLoop=1;jettySize=auto;html=1;exitX=0.5;exitY=1;exitDx=0;exitDy=0;entryX=0.5;entryY=0;entryDx=0;entryDy=0;" edge="1" parent="1" source="ZeraCoXUNdHbXlrZxC8q-39" target="ZeraCoXUNdHbXlrZxC8q-10">
          <mxGeometry relative="1" as="geometry" />
        </mxCell>
        <mxCell id="ZeraCoXUNdHbXlrZxC8q-39" value="supervisor" style="rounded=1;whiteSpace=wrap;html=1;fontSize=18;" vertex="1" parent="1">
          <mxGeometry x="-180" y="100" width="150" height="60" as="geometry" />
        </mxCell>
        <mxCell id="ZeraCoXUNdHbXlrZxC8q-41" value="" style="curved=1;endArrow=oval;html=1;rounded=0;endFill=1;startArrow=oval;startFill=1;" edge="1" parent="1" target="ZeraCoXUNdHbXlrZxC8q-30">
          <mxGeometry width="50" height="50" relative="1" as="geometry">
            <mxPoint x="-100" y="200" as="sourcePoint" />
            <mxPoint x="-40" y="260" as="targetPoint" />
            <Array as="points">
              <mxPoint x="-80" y="200" />
            </Array>
          </mxGeometry>
        </mxCell>
        <mxCell id="ZeraCoXUNdHbXlrZxC8q-43" value="/scan&lt;div&gt;/scan_hi_intensity&lt;/div&gt;" style="text;html=1;align=left;verticalAlign=middle;resizable=0;points=[];autosize=1;strokeColor=none;fillColor=none;fontSize=18;" vertex="1" parent="1">
          <mxGeometry x="-240" y="40" width="170" height="60" as="geometry" />
        </mxCell>
        <mxCell id="ZeraCoXUNdHbXlrZxC8q-44" value="" style="curved=1;endArrow=oval;html=1;rounded=0;endFill=1;startArrow=oval;startFill=1;entryX=-0.012;entryY=0.541;entryDx=0;entryDy=0;entryPerimeter=0;" edge="1" parent="1" target="ZeraCoXUNdHbXlrZxC8q-43">
          <mxGeometry width="50" height="50" relative="1" as="geometry">
            <mxPoint x="-260" y="130" as="sourcePoint" />
            <mxPoint x="-210" y="120" as="targetPoint" />
            <Array as="points">
              <mxPoint x="-270" y="100" />
            </Array>
          </mxGeometry>
        </mxCell>
      </root>
    </mxGraphModel>
  </diagram>
</mxfile>
